<svg xmlns="http://www.w3.org/2000/svg" width="64" height="64" viewBox="0 0 64 64" role="img" aria-label="Banana resume icon">
  <rect width="64" height="64" rx="14" fill="#111827"/>
  <path d="M15 44c15.7 2.2 32.3-8.1 38-24.5-1.9 22.1-19 34.9-39.3 31.1-2.8-.5-3.7-4.1-1.4-5.7.8-.6 1.8-1 2.7-.9z" fill="#facc15"/>
  <path d="M17 44.4c13.1 1 26.9-7.1 33.4-20.8-3.4 15.6-16.4 25.4-33.9 24.4-2.5-.1-2.4-3.7.5-3.6z" fill="#fde047"/>
  <path d="M50.5 18.1c1.6-1.7 3.6-2.5 5.5-2.5-.3 2.2-1.4 4.1-3.3 5.6-1.4-.4-2-.9-2.2-3.1zM12.2 45c-2.6.4-4.6 1.6-5.8 3.5 1.8 1.4 4 2 6.5 1.7.7-1.3.5-2.7-.7-5.2z" fill="#854d0e"/>
  <path d="M21 44c10.3-1.3 20.1-8.1 26.3-18.7" stroke="#fef9c3" stroke-width="3" stroke-linecap="round"/>
</svg>
